# xmcd CD database file
#
# Track frame offsets:
#	150
#	13198
#	24188
#	41310
#	55522
#	70548
#	82377
#	95464
#	110188
#	120179
#	126708
#	145977
#
# Disc length: 2108 seconds
#
# Revision: 1
# Processed by: cddbd v1.5.2PL0 Copyright (c) Steve Scherf et al.
# Submitted via: CDex 1.51
#
DISCID=9f083a0c
DTITLE=Various Artist - Blues Anytime Vol. 2 (LP record)
DYEAR=1900
DGENRE=Blues
TTITLE0=On Top Of The World (Mayall)
TTITLE1=Someone To Love (Pryor)
TTITLE2=Can't Quit It Baby (Dixon)
TTITLE3=Draggin' My Tail (Clapton/Page)
TTITLE4=Dealing With The Devil (Williamson)
TTITLE5=Who's Knocking (Spencer)
TTITLE6=Freight Loader (Clapton/Page)
TTITLE7=Look Down At My Woman (Spencer)
TTITLE8=Roll 'Em Pete (Johnson)
TTITLE9=Choker (Clapton/Page)
TTITLE10=True Blue (Chatman)
TTITLE11=When You Got A Good Friend (McPhee)
EXTD=
EXTT0=
EXTT1=
EXTT2=
EXTT3=
EXTT4=
EXTT5=
EXTT6=
EXTT7=
EXTT8=
EXTT9=
EXTT10=
EXTT11=
PLAYORDER=
